<svg xmlns="http://www.w3.org/2000/svg" xmlns:xlink="http://www.w3.org/1999/xlink" width="500" zoomAndPan="magnify" viewBox="0 0 375 374.999991" height="500" preserveAspectRatio="xMidYMid meet" version="1.0"><path fill="#2f2e2d" d="M 364.617188 365.992188 C 361.390625 348.132812 354.347656 309.71875 352.726562 304.855469 C 343.632812 277.683594 319.316406 266.472656 294.527344 256.878906 C 281.410156 251.777344 268.269531 246.699219 255.140625 241.609375 C 254.640625 243.847656 254.035156 246.070312 253.367188 248.292969 C 250.679688 257.152344 246.667969 265.984375 241.097656 274.84375 C 235.503906 283.679688 228.398438 292.523438 219.21875 301.371094 C 218.066406 302.476562 216.933594 303.582031 215.671875 304.6875 C 214.472656 305.78125 213.234375 306.898438 211.925781 308.003906 C 209.367188 310.214844 206.605469 312.414062 203.640625 314.640625 C 198.34375 318.660156 192.59375 322.675781 185.476562 326.707031 C 185.335938 326.789062 185.15625 326.875 184.941406 326.992188 C 183.550781 327.648438 181.90625 327.648438 180.5625 326.898438 C 180.550781 326.886719 180.550781 326.886719 180.539062 326.886719 C 173.289062 322.808594 167.445312 318.71875 162.066406 314.640625 C 159.113281 312.414062 156.316406 310.214844 153.78125 308.003906 C 152.460938 306.898438 151.246094 305.78125 150.007812 304.6875 C 148.761719 303.582031 147.640625 302.476562 146.460938 301.371094 C 137.296875 292.523438 130.191406 283.679688 124.597656 274.84375 C 119.015625 265.984375 115.027344 257.152344 112.339844 248.292969 C 111.671875 246.070312 111.066406 243.859375 110.554688 241.625 C 97.425781 246.699219 84.296875 251.789062 71.167969 256.878906 C 46.390625 266.472656 22.074219 277.683594 12.96875 304.855469 C 11.347656 309.71875 4.304688 348.132812 1.078125 365.992188 C 0.210938 370.710938 3.851562 375.0625 8.660156 375.0625 L 357.035156 375.0625 C 361.84375 375.0625 365.484375 370.710938 364.617188 365.992188 " fill-opacity="1" fill-rule="nonzero"/><path fill="#2f2e2d" d="M 68.660156 195.335938 C 92.570312 202.410156 116.492188 207.273438 140.40625 209.902344 C 142.832031 210.164062 144.011719 207.035156 142.035156 205.609375 C 124.015625 192.53125 113.980469 171.402344 113.980469 150.699219 L 113.980469 102.6875 L 126.992188 101.917969 C 150.949219 100.511719 174.445312 93.09375 198.808594 79.21875 L 205.53125 75.402344 L 212.304688 79.109375 C 221.683594 84.269531 231.527344 88.277344 241.550781 91 L 251.726562 93.769531 L 251.726562 150.699219 C 251.726562 173.253906 240.667969 193.265625 223.695312 205.621094 C 221.730469 207.046875 222.933594 210.164062 225.351562 209.902344 C 249.25 207.261719 273.148438 202.410156 297.050781 195.335938 C 306.429688 192.566406 311.6875 182.601562 308.570312 173.328125 C 308.570312 173.328125 271.804688 63.855469 271.804688 63.855469 C 265.28125 44.402344 251.378906 24.261719 232.933594 14.523438 C 227.921875 11.886719 222.601562 12.3125 217.148438 12.96875 C 212.316406 9.199219 207.355469 5.214844 201.558594 2.992188 C 195.605469 0.71875 189.203125 -0.0625 182.859375 -0.0625 C 142.535156 -0.0625 106.722656 25.664062 93.902344 63.855469 L 57.136719 173.328125 C 54.03125 182.601562 59.28125 192.566406 68.660156 195.335938 " fill-opacity="1" fill-rule="nonzero"/><path fill="#2f2e2d" d="M 218.292969 250.015625 C 192.605469 268.695312 170.21875 268.671875 147.832031 249.96875 C 144.453125 247.152344 139.417969 247.605469 136.582031 250.980469 C 133.761719 254.355469 134.214844 259.375 137.59375 262.203125 C 151.792969 274.070312 166.554688 279.992188 181.765625 279.992188 C 196.667969 279.992188 212.007812 274.296875 227.683594 262.90625 C 231.242188 260.3125 232.027344 255.332031 229.433594 251.777344 C 226.839844 248.210938 221.863281 247.425781 218.292969 250.015625 " fill-opacity="1" fill-rule="nonzero"/></svg>