<svg xmlns="http://www.w3.org/2000/svg" xmlns:xlink="http://www.w3.org/1999/xlink" width="500" zoomAndPan="magnify" viewBox="0 0 375 374.999991" height="500" preserveAspectRatio="xMidYMid meet" version="1.0"><path fill="#2f2e2d" d="M 75.601562 293.957031 L 79.972656 291.054688 L 96.792969 279.875 L 90.941406 277.082031 L 83.492188 273.527344 L 87.605469 266.371094 L 95.03125 253.476562 C 61.78125 270.824219 23.695312 292.6875 16.203125 296.953125 C 3.152344 304.371094 -0.101562 311.417969 -0.101562 328.578125 L -0.101562 366.890625 C -0.101562 371.382812 3.570312 375.042969 8.046875 375.042969 L 93.574219 375.042969 L 76.734375 299.082031 Z M 75.601562 293.957031 " fill-opacity="1" fill-rule="nonzero"/><path fill="#2f2e2d" d="M 187.3125 261.847656 C 199.644531 254.183594 241.742188 226.742188 244.355469 207.566406 L 244.355469 174.707031 C 254.519531 167.273438 260.65625 155.835938 260.65625 138.484375 L 260.65625 99.429688 C 262.875 98.070312 269.089844 93.519531 269.328125 84.867188 C 271.90625 52.414062 265.699219 47.351562 258.769531 34.925781 C 251.835938 22.496094 245.386719 22.019531 245.386719 22.019531 L 266.894531 13.894531 C 266.894531 13.894531 257.355469 7.921875 247.300781 4.335938 C 237.242188 0.75 219.578125 0.269531 200.457031 0.992188 C 181.34375 1.707031 156.25 5.53125 143.585938 12.9375 C 130.917969 20.347656 123.273438 33.25 121.121094 39.699219 C 118.976562 46.152344 121.105469 53.179688 121.105469 53.179688 C 121.105469 53.179688 112.28125 49.738281 108.703125 56.425781 C 105.113281 63.121094 103.445312 82.710938 105.832031 93.703125 C 108.222656 104.699219 113.148438 105.496094 113.148438 105.496094 L 113.988281 105.472656 L 113.988281 138.484375 C 113.988281 156.011719 120.109375 167.488281 130.289062 174.875 L 130.289062 207.566406 C 132.890625 226.742188 174.980469 254.183594 187.3125 261.847656 Z M 187.3125 261.847656 " fill-opacity="1" fill-rule="nonzero"/><path fill="#2f2e2d" d="M 127.601562 219.859375 L 122.015625 220.90625 L 107.558594 247.042969 L 94.242188 270.179688 L 112.257812 278.789062 L 84.199219 297.421875 L 101.402344 375.042969 L 140.121094 375.042969 L 123.371094 239.363281 Z M 127.601562 219.859375 " fill-opacity="1" fill-rule="nonzero"/><path fill="#2f2e2d" d="M 358.441406 296.953125 C 350.867188 292.644531 313.175781 270.398438 279.554688 252.984375 L 287.023438 266.367188 L 291.136719 273.523438 L 283.6875 277.078125 L 277.835938 279.871094 L 294.65625 291.050781 L 299.027344 293.953125 L 297.894531 299.078125 L 281.054688 375.039062 L 366.582031 375.039062 C 371.058594 375.039062 374.730469 371.378906 374.730469 366.886719 L 374.730469 328.574219 C 374.734375 311.417969 371.480469 304.367188 358.441406 296.953125 Z M 358.441406 296.953125 " fill-opacity="1" fill-rule="nonzero"/><path fill="#2f2e2d" d="M 200.867188 273.910156 L 193.261719 267.074219 L 181.371094 267.074219 L 173.761719 273.910156 C 176.125 278.117188 178.382812 284.035156 178.058594 291.0625 C 177.402344 305.3125 160.199219 315.730469 160.671875 374.804688 L 213.957031 374.804688 C 214.433594 315.734375 197.234375 305.3125 196.574219 291.0625 C 196.246094 284.035156 198.503906 278.117188 200.867188 273.910156 Z M 200.867188 273.910156 " fill-opacity="1" fill-rule="nonzero"/><path fill="#2f2e2d" d="M 262.371094 278.789062 L 280.394531 270.179688 L 266.792969 246.515625 C 266.789062 246.515625 266.789062 246.503906 266.777344 246.503906 L 266.503906 246.011719 L 266.425781 245.863281 C 266.425781 245.863281 266.425781 245.863281 266.433594 245.863281 L 252.613281 220.90625 L 247.03125 219.863281 L 251.265625 239.363281 L 234.511719 375.046875 L 273.222656 375.046875 L 290.433594 297.421875 Z M 258.550781 314.007812 L 258.550781 323.523438 C 258.550781 324.3125 257.917969 324.949219 257.121094 324.949219 C 256.332031 324.949219 255.695312 324.3125 255.695312 323.523438 L 255.695312 303.394531 C 255.695312 302.605469 256.332031 301.96875 257.121094 301.96875 C 257.917969 301.96875 258.550781 302.605469 258.550781 303.394531 L 258.550781 304.035156 C 263.597656 306.5625 267.742188 302.214844 274.292969 304.832031 L 274.292969 314.800781 C 267.75 312.175781 263.59375 316.527344 258.550781 314.007812 Z M 258.550781 314.007812 " fill-opacity="1" fill-rule="nonzero"/></svg>